<?xml version="1.0" encoding="UTF-8"?>
<svg xmlns="http://www.w3.org/2000/svg" xmlns:xlink="http://www.w3.org/1999/xlink" width="360pt" height="360pt" viewBox="0 0 360 360" version="1.1">
<g id="surface236">
<rect x="0" y="0" width="360" height="360" style="fill:rgb(100%,100%,100%);fill-opacity:1;stroke:none;"/>
<path style="fill:none;stroke-width:1.5;stroke-linecap:round;stroke-linejoin:round;stroke:rgb(98.039216%,41.176471%,0%);stroke-opacity:1;stroke-miterlimit:10;" d="M 13.332031 346.667969 L 13.332031 13.332031 L 346.667969 13.332031 L 346.667969 346.667969 Z "/>
<path style=" stroke:none;fill-rule:nonzero;fill:rgb(41.176471%,82.352941%,90.588235%);fill-opacity:1;" d="M 346.667969 180 L 346.332031 190.464844 L 345.351562 200.882812 L 343.714844 211.234375 L 341.433594 221.449219 L 338.515625 231.5 L 334.964844 241.351562 L 330.800781 250.964844 L 326.050781 260.300781 L 320.714844 269.300781 L 314.832031 277.964844 L 308.417969 286.234375 L 301.5 294.082031 L 294.082031 301.5 L 286.234375 308.417969 L 277.964844 314.832031 L 269.300781 320.714844 L 260.300781 326.050781 L 250.964844 330.800781 L 241.351562 334.964844 L 231.5 338.515625 L 221.449219 341.433594 L 211.234375 343.714844 L 200.882812 345.351562 L 190.464844 346.332031 L 180 346.667969 L 169.535156 346.332031 L 159.117188 345.351562 L 148.765625 343.714844 L 138.550781 341.433594 L 128.5 338.515625 L 118.648438 334.964844 L 109.035156 330.800781 L 99.699219 326.050781 L 90.699219 320.714844 L 82.035156 314.832031 L 73.765625 308.417969 L 65.917969 301.5 L 58.5 294.082031 L 51.582031 286.234375 L 45.167969 277.964844 L 39.285156 269.300781 L 33.949219 260.300781 L 29.199219 250.964844 L 25.035156 241.351562 L 21.484375 231.5 L 18.566406 221.449219 L 16.285156 211.234375 L 14.648438 200.882812 L 13.667969 190.464844 L 13.332031 180 L 13.667969 169.535156 L 14.648438 159.117188 L 16.285156 148.765625 L 18.566406 138.550781 L 21.484375 128.5 L 25.035156 118.648438 L 29.199219 109.035156 L 33.949219 99.699219 L 39.285156 90.699219 L 45.167969 82.035156 L 51.582031 73.765625 L 58.5 65.917969 L 65.917969 58.5 L 73.765625 51.582031 L 82.035156 45.167969 L 90.699219 39.285156 L 99.699219 33.949219 L 109.035156 29.199219 L 118.648438 25.035156 L 128.5 21.484375 L 138.550781 18.566406 L 148.765625 16.285156 L 159.117188 14.648438 L 169.535156 13.667969 L 180 13.332031 L 190.464844 13.667969 L 200.882812 14.648438 L 211.234375 16.285156 L 221.449219 18.566406 L 231.5 21.484375 L 241.351562 25.035156 L 250.964844 29.199219 L 260.300781 33.949219 L 269.300781 39.285156 L 277.964844 45.167969 L 286.234375 51.582031 L 294.082031 58.5 L 301.5 65.917969 L 308.417969 73.765625 L 314.832031 82.035156 L 320.714844 90.699219 L 326.050781 99.699219 L 330.800781 109.035156 L 334.964844 118.648438 L 338.515625 128.5 L 341.433594 138.550781 L 343.714844 148.765625 L 345.351562 159.117188 L 346.332031 169.535156 Z "/>
</g>
</svg>
